<?xml version="1.0" standalone="no"?><!DOCTYPE svg PUBLIC "-//W3C//DTD SVG 1.1//EN" "http://www.w3.org/Graphics/SVG/1.1/DTD/svg11.dtd"><svg t="1662342300416" class="icon" viewBox="0 0 1024 1024" version="1.1" xmlns="http://www.w3.org/2000/svg" p-id="4854" xmlns:xlink="http://www.w3.org/1999/xlink" width="200" height="200"><path d="M341.318 793.334v209.338c0 11.78 9.562 21.31 21.344 21.31 11.78 0 21.342-9.532 21.342-21.31V793.334h-42.686z" fill="#D770AD" p-id="4855"></path><path d="M741.71 184.48l-30.154-30.188 146.12-146.118 30.154 30.154z" fill="#4A89DC" p-id="4856"></path><path d="M362.662 341.35c-129.59 0-234.648 105.058-234.648 234.648 0 129.62 105.058 234.678 234.648 234.678 129.588 0 234.648-105.058 234.648-234.678 0-129.59-105.06-234.648-234.648-234.648z m135.776 370.424c-36.28 36.25-84.498 56.218-135.776 56.218-51.28 0-99.498-19.968-135.746-56.218-36.28-36.28-56.248-84.464-56.248-135.776 0-51.28 19.968-99.496 56.248-135.746 36.25-36.248 84.466-56.248 135.746-56.248 51.28 0 99.496 20 135.776 56.248 36.25 36.25 56.216 84.466 56.216 135.746 0 51.31-19.966 99.496-56.216 135.776zM426.628 959.984h-127.932c-11.782 0-21.312-9.532-21.312-21.312s9.532-21.342 21.312-21.342h127.932c11.782 0 21.344 9.56 21.344 21.342s-9.562 21.312-21.344 21.312z" fill="#EC87C0" p-id="4857"></path><path d="M895.986 21.36c0-11.78-9.562-21.31-21.342-21.31V0.018h-84.654V0.08a4.58 4.58 0 0 0-0.688-0.062c-11.782 0.032-21.31 9.562-21.31 21.342 0 11.782 9.53 21.344 21.31 21.344 0.25 0 0.468-0.032 0.688-0.032v0.032h63.312v63.31h0.032c0 0.25-0.032 0.468-0.032 0.688 0 11.782 9.56 21.312 21.342 21.312 11.78 0 21.342-9.532 21.342-21.312 0-0.218-0.032-0.438-0.032-0.688h0.032V21.36zM738.9 157.136c-45.844-45.842-105.874-68.748-165.934-68.748s-120.122 22.906-165.932 68.748c-91.654 91.622-91.654 240.21 0 331.832 40.906 40.938 93.184 63.56 146.682 67.936a191.608 191.608 0 0 0-9.624-43.998c-40.34-6.062-77.528-24.718-106.902-54.092-36.25-36.25-56.216-84.466-56.216-135.746 0-51.31 19.968-99.496 56.216-135.776 36.28-36.25 84.498-56.218 135.776-56.218 51.282 0 99.496 19.968 135.746 56.218 36.28 36.28 56.248 84.464 56.248 135.776 0 51.28-19.968 99.496-56.248 135.746-32.406 32.436-74.404 51.81-119.59 55.56a234.108 234.108 0 0 1 7.406 42.154c51.966-5.218 102.528-27.716 142.372-67.56 91.622-91.62 91.622-240.21 0-331.832z" fill="#5D9CEC" p-id="4858"></path></svg>